<svg width="20" height="20" viewBox="0 0 20 20" fill="none" xmlns="http://www.w3.org/2000/svg">
<path fill-rule="evenodd" clip-rule="evenodd" d="M10.2929 9.29289C10.6834 8.90237 11.3166 8.90237 11.7071 9.29289L13 10.5858L14.2929 9.29289C14.6834 8.90237 15.3166 8.90237 15.7071 9.29289C16.0976 9.68342 16.0976 10.3166 15.7071 10.7071L13.7071 12.7071C13.3166 13.0976 12.6834 13.0976 12.2929 12.7071L10.2929 10.7071C9.90237 10.3166 9.90237 9.68342 10.2929 9.29289Z" fill="#5F5F5F"/>
<path fill-rule="evenodd" clip-rule="evenodd" d="M14 8H6C4.34315 8 3 9.34315 3 11C3 12.6569 4.34315 14 6 14H14C15.6569 14 17 12.6569 17 11C17 9.34315 15.6569 8 14 8ZM6 6C3.23858 6 1 8.23858 1 11C1 13.7614 3.23858 16 6 16H14C16.7614 16 19 13.7614 19 11C19 8.23858 16.7614 6 14 6H6Z" fill="#5F5F5F"/>
</svg>
