<svg width="20" height="20" viewBox="0 0 20 20" fill="none" xmlns="http://www.w3.org/2000/svg">
<path fill-rule="evenodd" clip-rule="evenodd" d="M17.7809 4.52396C18.32 4.95522 18.4074 5.74184 17.9761 6.28091L10.9761 13.7809C10.7663 14.0432 10.4598 14.21 10.1256 14.2437C9.79149 14.2775 9.45781 14.1753 9.1998 13.9603L6.1998 11.4603C5.66945 11.0184 5.5978 10.2302 6.03975 9.69982C6.48171 9.16947 7.26992 9.09781 7.80026 9.53977L9.82059 11.2234L16.0239 4.71918C16.4552 4.1801 17.2418 4.0927 17.7809 4.52396Z" fill="#5F5F5F"/>
<path d="M13.9462 4H6C4.34315 4 3 5.34315 3 7V15C3 16.6569 4.34315 18 6 18H14C15.6569 18 17 16.6569 17 15V10.2581L15 12.4009V15C15 15.5523 14.5523 16 14 16H11.2504C10.9583 16.1217 10.6474 16.2013 10.3267 16.2337C9.78474 16.2884 9.2433 16.2057 8.74978 16H6C5.44772 16 5 15.5523 5 15V13.0639L4.91948 12.9968C3.54058 11.8478 3.35428 9.79842 4.50336 8.41952C4.65452 8.23813 4.82126 8.07738 5 7.93759V7C5 6.44772 5.44772 6 6 6H12.0387L13.9462 4Z" fill="#5F5F5F"/>
</svg>
